<?xml version="1.0" encoding="UTF-8"?>
<svg version="1.1" xmlns="http://www.w3.org/2000/svg" width="250" height="250">
<path d="M0 0 C20.728125 -0.556875 41.45625 -1.11375 62.8125 -1.6875 C69.30139893 -1.93330811 75.79029785 -2.17911621 82.47583008 -2.43237305 C128.09576795 -3.43239537 128.09576795 -3.43239537 140.90288448 7.63149929 C145.91073649 12.44423711 150.02607282 17.8520008 153.66362 23.75358582 C158.26840079 30.15195666 164.6550436 34.5243753 170.9405365 39.16891479 C186.79662699 51.15293881 203.35427991 64.92300117 206.80748749 85.41210175 C207.67916753 92.37435253 207.90516891 99.33310154 207.90625 106.34375 C207.90654709 107.62108505 207.90684418 108.8984201 207.90715027 110.21446228 C207.78785397 120.67542096 207.09305218 131.04023892 206.5 141.5 C205.675 162.125 204.85 182.75 204 204 C136.68 204 69.36 204 0 204 C0 136.68 0 69.36 0 0 Z M21 20 C21 44.75 21 69.5 21 95 C21.33 95 21.66 95 22 95 C22.15855469 94.06800781 22.31710938 93.13601562 22.48046875 92.17578125 C25.69049177 74.63593168 32.20130608 59.52079126 44 46 C44.51949219 45.38511719 45.03898437 44.77023438 45.57421875 44.13671875 C57.59270719 30.96784602 76.56288672 22.93745703 94 21 C94 20.67 94 20.34 94 20 C69.91 20 45.82 20 21 20 Z M105 20 C105 47.39 105 74.78 105 103 C130.74 103 156.48 103 183 103 C183 94.09 183 85.18 183 76 C164.19 76 145.38 76 126 76 C126 57.52 126 39.04 126 20 C119.07 20 112.14 20 105 20 Z M21 113 C21 137.75 21 162.5 21 188 C45.09 188 69.18 188 94 188 C94 187.67 94 187.34 94 187 C93.05640625 186.84144531 92.1128125 186.68289062 91.140625 186.51953125 C68.49908748 182.40495465 49.55816119 171.20642566 36.1015625 152.3671875 C28.49436554 140.17870464 23.62642102 127.31250494 22 113 C21.67 113 21.34 113 21 113 Z M182 120 C181.8040625 120.825 181.608125 121.65 181.40625 122.5 C175.38472994 145.75552574 162.56809564 164.72490594 141.71777344 177.02197266 C132.14591961 182.47178028 121.94156942 185.78427006 111 187 C111 187.33 111 187.66 111 188 C134.76 188 158.52 188 183 188 C183 165.56 183 143.12 183 120 C182.67 120 182.34 120 182 120 Z " fill="#A07CCC" transform="translate(22,25)"/>
<path d="M0 0 C20.728125 -0.556875 41.45625 -1.11375 62.8125 -1.6875 C69.30139893 -1.93330811 75.79029785 -2.17911621 82.47583008 -2.43237305 C128.09576795 -3.43239537 128.09576795 -3.43239537 140.90288448 7.63149929 C145.91073649 12.44423711 150.02607282 17.8520008 153.66362 23.75358582 C158.26840079 30.15195666 164.6550436 34.5243753 170.9405365 39.16891479 C186.79662699 51.15293881 203.35427991 64.92300117 206.80748749 85.41210175 C207.67916753 92.37435253 207.90516891 99.33310154 207.90625 106.34375 C207.90654709 107.62108505 207.90684418 108.8984201 207.90715027 110.21446228 C207.78785397 120.67542096 207.09305218 131.04023892 206.5 141.5 C205.675 162.125 204.85 182.75 204 204 C136.68 204 69.36 204 0 204 C0 136.68 0 69.36 0 0 Z M21 20 C21 75.44 21 130.88 21 188 C74.46 188 127.92 188 183 188 C183 151.04 183 114.08 183 76 C164.19 76 145.38 76 126 76 C126 57.52 126 39.04 126 20 C91.35 20 56.7 20 21 20 Z " fill="#FFFFFF" transform="translate(22,25)"/>
<path d="" fill="#DDDDDD" transform="translate(0,0)"/>
<path d="" fill="#DBDBDB" transform="translate(0,0)"/>
</svg>
